# xmcd
#
# Track frame offsets: 
#        150
#        23610
#        50925
#        67722
#        84367
#        87615
#        106472
#        129212
#        145065
#        164267
#        165810
#        190230
#        205460
#
# Disc length: 3007 seconds
#
# Revision: 0
# Processed by: cddbd v1.4PL0 Copyright (c) Steve Scherf et al.
# Submitted via: ExactAudioCopy v0.90b4
#
DISCID=a50bbd0d
DTITLE=Various Artist - Marseille Connexion
DYEAR=1999
DGENRE=Hip-Hop
TTITLE0=Sadik Asken - Trop De Dommages
TTITLE1=Akolyts - Idée Noire
TTITLE2=Kaff et Krem - J'roule Ma Just
TTITLE3=Ange Noir - Quand Un Homme Pleure
TTITLE4=Interlude
TTITLE5=Mojo - J'Viens Pas Pour Me Filer
TTITLE6=Tony et Paco - Pas De Fausse Figure
TTITLE7=Point D'Encre - La Folie
TTITLE8=Natikal feat Sat de la Fonky Family
TTITLE9=Interlude
TTITLE10=Fartazialand - Money
TTITLE11=Faïnatur - Supaman
TTITLE12=Tony Et Paco - Un Monde Impitoyable
EXTD=
EXTT0=
EXTT1=
EXTT2=
EXTT3=
EXTT4=
EXTT5=
EXTT6=
EXTT7=
EXTT8=
EXTT9=
EXTT10=
EXTT11=
EXTT12=
PLAYORDER=
